<?xml version="1.0" encoding="UTF-8" standalone="no"?>
<!DOCTYPE svg PUBLIC "-//W3C//DTD SVG 1.1//EN" "http://www.w3.org/Graphics/SVG/1.1/DTD/svg11.dtd"><svg width="100%"
  height="100%" viewBox="0 0 24 24" version="1.1" xmlns="http://www.w3.org/2000/svg"
  xmlns:xlink="http://www.w3.org/1999/xlink" xml:space="preserve" xmlns:serif="http://www.serif.com/"
  style="fill-rule:evenodd;clip-rule:evenodd;stroke-linecap:round;stroke-linejoin:round;">
  <g id="instagram">
    <path
      d="M7.8,2l8.4,0c3.2,0 5.8,2.6 5.8,5.8l0,8.4c0,3.182 -2.618,5.8 -5.8,5.8l-8.4,0c-3.2,0 -5.8,-2.6 -5.8,-5.8l0,-8.4c0,-3.182 2.618,-5.8 5.8,-5.8m-0.2,2c-1.975,0 -3.6,1.625 -3.6,3.6l0,8.8c0,1.99 1.61,3.6 3.6,3.6l8.8,0c1.975,0 3.6,-1.625 3.6,-3.6l0,-8.8c0,-1.99 -1.61,-3.6 -3.6,-3.6l-8.8,0m9.65,1.5c0.686,0 1.25,0.564 1.25,1.25c0,0.686 -0.564,1.25 -1.25,1.25c-0.686,0 -1.25,-0.564 -1.25,-1.25c0,-0.686 0.564,-1.25 1.25,-1.25m-5.25,1.5c2.743,0 5,2.257 5,5c0,2.743 -2.257,5 -5,5c-2.743,0 -5,-2.257 -5,-5c0,-2.743 2.257,-5 5,-5m0,2c-1.646,0 -3,1.354 -3,3c0,1.646 1.354,3 3,3c1.646,0 3,-1.354 3,-3c0,-1.646 -1.354,-3 -3,-3Z"
      style="fill-rule:nonzero;" />
  </g>
  <g id="patreon">
    <path
      d="M14.82,2.41c3.96,0 7.18,3.24 7.18,7.21c0,3.96 -3.22,7.18 -7.18,7.18c-3.97,0 -7.21,-3.22 -7.21,-7.18c0,-3.97 3.24,-7.21 7.21,-7.21m-12.82,19.19l3.5,0l0,-19.19l-3.5,0l0,19.19Z"
      style="fill-rule:nonzero;" />
  </g>
  <g id="pixiv">
    <path id="path2996"
      d="M12.964,2.854c-3.093,0.057 -6.828,1.479 -10.964,5.071l1.101,2.387l0.6,-0.348l-0,-1.231c0.356,-0.714 0.853,-1.371 1.828,-1.83l0,13.765l-0.506,-0l0.004,0.49l3.434,0l0,-0.477l-0.516,0l0,-3.47c19.167,4.295 16.591,-14.573 5.019,-14.357Zm-0.143,1.326c9.267,0.065 9.482,16.382 -4.876,11.489l0,-10.24c1.825,-0.887 3.457,-1.259 4.876,-1.249Z"
      style="fill-rule:nonzero;stroke-rule:nonzero; stroke-width:0.36px;" />
  </g>
  <g id="twitter">
    <path
      d="M22.46,6.005c-0.77,0.35 -1.6,0.58 -2.46,0.69c0.88,-0.53 1.56,-1.37 1.88,-2.38c-0.83,0.5 -1.75,0.85 -2.72,1.05c-0.79,-0.86 -1.9,-1.36 -3.16,-1.36c-2.35,-0 -4.27,1.92 -4.27,4.29c0,0.34 0.04,0.67 0.11,0.98c-3.56,-0.18 -6.73,-1.89 -8.84,-4.48c-0.37,0.63 -0.58,1.37 -0.58,2.15c0,1.49 0.75,2.81 1.91,3.56c-0.71,-0 -1.37,-0.2 -1.95,-0.5l0,0.03c0,2.08 1.48,3.82 3.44,4.21c-0.36,0.1 -0.74,0.15 -1.13,0.15c-0.27,-0 -0.54,-0.03 -0.8,-0.08c0.54,1.69 2.11,2.95 4,2.98c-1.46,1.16 -3.31,1.84 -5.33,1.84c-0.34,-0 -0.68,-0.02 -1.02,-0.06c1.9,1.22 4.16,1.93 6.58,1.93c7.88,-0 12.21,-6.54 12.21,-12.21c-0,-0.19 -0,-0.37 -0.01,-0.56c0.84,-0.6 1.56,-1.36 2.14,-2.23Z"
      style="fill-rule:nonzero;" />
  </g>
</svg>